# xmcd
#
# Track frame offsets:
#	150
#	19475
#	36624
#	64760
#	84295
#	111218
#	115328
#	139071
#	164503
#	216314
#	242283
#	285526
#
# Disc length: 4420 seconds
#
# Revision: 1
# Processed by: cddbd v1.5.2PL0 Copyright (c) Steve Scherf et al.
# Submitted via: audiograbber 1.83.01
#
DISCID=ae11420c
DTITLE=Gary Moore - Blues For Jimi
DYEAR=2012
DGENRE=Blues
TTITLE0=Purple Haze (Live)
TTITLE1=Manic Depression (Live)
TTITLE2=Foxey Lady (Live)
TTITLE3=The Wind Cries Mary (Live)
TTITLE4=I Don't Live Today (Live)
TTITLE5=My Angel (Live)
TTITLE6=Angel (Live)
TTITLE7=Fire (Live)
TTITLE8=Red House (Live)
TTITLE9=Stone Free (Live)
TTITLE10=Hey Joe (Live)
TTITLE11=Voodoo Child (Slight Return) (Live)
EXTD=
EXTT0=
EXTT1=
EXTT2=
EXTT3=
EXTT4=
EXTT5=
EXTT6=
EXTT7=
EXTT8=
EXTT9=
EXTT10=
EXTT11=
PLAYORDER=
